# xmcd
#
# Track frame offsets:
#	182
#	13487
#	32115
#	41342
#	60222
#	75725
#	95155
#	107552
#	128935
#	141467
#
# Disc length: 2092 seconds
#
# Revision: 2
# Processed by: cddbd v1.5.2PL0 Copyright (c) Steve Scherf et al.
# Submitted via: EZCDDA 4.3.2
#
DISCID=86082a0a
DTITLE=The Desert Rose Band - Running
DYEAR=1900
DGENRE=
TTITLE0=She Don't Love Nobody
TTITLE1=Running
TTITLE2=Hello Trouble
TTITLE3=I Still Believe In You
TTITLE4=Summer Wind
TTITLE5=For The Rich Man
TTITLE6=Step On Out
TTITLE7=Homeless
TTITLE8=Livin' In The House
TTITLE9=Our Songs
EXTD=
EXTT0=
EXTT1=
EXTT2=
EXTT3=
EXTT4=
EXTT5=
EXTT6=
EXTT7=
EXTT8=
EXTT9=
PLAYORDER=
